<?xml version="1.0" standalone="no"?>
<!DOCTYPE svg PUBLIC "-//W3C//DTD SVG 20010904//EN"
 "http://www.w3.org/TR/2001/REC-SVG-20010904/DTD/svg10.dtd">
<svg version="1.0" xmlns="http://www.w3.org/2000/svg"
 width="309.000000pt" height="309.000000pt" viewBox="0 0 309.000000 309.000000"
 preserveAspectRatio="xMidYMid meet">
<metadata>
Created by potrace 1.14, written by Peter Selinger 2001-2017
</metadata>
<g transform="translate(0.000000,309.000000) scale(0.100000,-0.100000)"
fill="#000000" stroke="none">
<path d="M2950 3049 c-72 -34 -310 -145 -408 -190 -78 -36 -427 -198 -617
-286 -77 -36 -165 -77 -195 -90 -30 -14 -109 -51 -175 -82 -66 -31 -159 -75
-208 -96 -77 -35 -85 -40 -65 -48 27 -11 251 -71 458 -124 80 -20 149 -40 153
-43 5 -4 -38 -33 -95 -65 -128 -72 -163 -91 -263 -147 -44 -25 -102 -57 -130
-73 -105 -59 -202 -113 -250 -140 -135 -75 -401 -224 -580 -325 -110 -62 -220
-124 -245 -138 -25 -13 -85 -47 -135 -75 l-90 -51 363 -119 c199 -65 362 -122
362 -125 0 -4 -33 -41 -73 -83 -39 -42 -130 -138 -202 -214 -72 -76 -150 -159
-175 -185 -194 -204 -306 -324 -308 -332 -4 -8 36 12 253 127 44 23 138 73
210 110 72 37 153 80 180 95 28 15 122 65 210 110 88 46 165 86 170 90 6 4 78
42 160 85 83 43 182 95 220 115 138 74 242 129 380 200 242 126 264 139 235
141 -8 0 -26 2 -40 5 -14 2 -54 9 -90 14 -36 6 -78 13 -95 16 -16 3 -41 7 -55
9 -14 2 -65 11 -115 19 -49 8 -107 17 -127 20 -21 3 -55 9 -75 12 -21 4 -43 7
-50 8 -7 1 -15 5 -18 8 -3 3 85 76 197 163 112 86 217 167 233 180 17 13 77
60 135 105 58 44 112 86 120 93 8 7 33 26 55 42 22 17 49 37 60 47 11 9 124
96 250 194 127 98 252 195 278 215 l48 38 -98 64 c-54 35 -140 89 -190 121
-51 32 -93 62 -93 66 0 4 35 38 77 76 43 38 95 85 117 104 58 52 55 49 146
130 106 94 159 141 177 159 8 7 32 29 54 47 50 42 43 42 -41 3z"/>
</g>
</svg>
